# xmcd
#
# Track frame offsets: 
#        150
#        20679
#        95874
#        136173
#        160485
#        189357
#        210095
#        241372
#        311065
#
# Disc length: 4774 seconds
#
# Revision: 0
# Processed by: cddbd v1.5.2PL0 Copyright (c) Steve Scherf et al.
# Submitted via: ExactAudioCopy v0.99pb1
#
DISCID=7612a409
DTITLE=Luther Allison - LIVE Börse Wuppertal 28.XI.1986
DYEAR=1900
DGENRE=
TTITLE0=Here I Come
TTITLE1=Try
TTITLE2=The Thrill Is Gone
TTITLE3=Too Many Women
TTITLE4=You Upset Me Baby
TTITLE5=Change
TTITLE6=Help
TTITLE7=Serious
TTITLE8=Dock Of The Bay
EXTD=
EXTT0=
EXTT1=
EXTT2=
EXTT3=
EXTT4=
EXTT5=
EXTT6=
EXTT7=
EXTT8=
PLAYORDER=
